HIERARCHY
ROOT Hips
{
	OFFSET 0.00 0.00 0.00
	CHANNELS 6 Xposition Yposition Zposition Xrotation Yrotation Zrotation
	JOINT Spine
	{
		OFFSET 0.00000 5.19526 0.00000
		CHANNELS 3 Xrotation Yrotation Zrotation
		JOINT Head
		{
			OFFSET 0.00000 15.65388 0.00000
			CHANNELS 3 Xrotation Yrotation Zrotation
			End Site
			{
				OFFSET 0.00000 4.52755 0.00000
			}
		}
		JOINT LeftShoulder
		{
			OFFSET 0.00000 10.32977 0.00000
			CHANNELS 3 Xrotation Yrotation Zrotation
			JOINT LeftArm
			{
				OFFSET 6.99601 0.00000 0.00000
				CHANNELS 3 Xrotation Yrotation Zrotation
				JOINT LeftForeArm
				{
					OFFSET 10.20930 0.00000 0.00000
					CHANNELS 3 Yrotation Zrotation Xrotation
					JOINT LeftHand
					{
						OFFSET 8.56316 0.00000 0.00000
						CHANNELS 3 Xrotation Yrotation Zrotation
						JOINT LeftHandThumb1
						{
							OFFSET 0.00000 0.00000 0.00000
							CHANNELS 3 Xrotation Zrotation Yrotation
							End Site
							{
								OFFSET 0.00000 0.00000 3.93700
							}
						}
						End Site
						{
							OFFSET 3.93700 0.00000 0.00000
						}
					}
				}
			}
		}
		JOINT RightShoulder
		{
			OFFSET 0.00000 10.32977 0.00000
			CHANNELS 3 Xrotation Yrotation Zrotation
			JOINT RightArm
			{
				OFFSET -6.99601 0.00000 0.00000
				CHANNELS 3 Xrotation Yrotation Zrotation
				JOINT RightForeArm
				{
					OFFSET -10.20930 0.00000 0.00000
					CHANNELS 3 Yrotation Zrotation Xrotation
					JOINT RightHand
					{
						OFFSET -8.56316 0.00000 0.00000
						CHANNELS 3 Xrotation Yrotation Zrotation
						JOINT RightHandThumb1
						{
							OFFSET 0.00000 0.00000 0.00000
							CHANNELS 3 Xrotation Zrotation Yrotation
							End Site
							{
								OFFSET 0.00000 0.00000 3.93700
							}
						}
						End Site
						{
							OFFSET -3.93700 0.00000 0.00000
						}
					}
				}
			}
		}
	}
	JOINT LeftUpLeg
	{
		OFFSET 3.35136 0.00000 0.00000
		CHANNELS 3 Xrotation Yrotation Zrotation
		JOINT LeftLeg
		{
			OFFSET 0.00000 -16.34683 0.00000
			CHANNELS 3 Xrotation Yrotation Zrotation
			JOINT LeftFoot
			{
				OFFSET 0.00000 -13.95979 0.00000
				CHANNELS 3 Xrotation Yrotation Zrotation
				JOINT LeftToeBase
				{
					OFFSET 0.00000 -1.33694 4.98954
					CHANNELS 3 Xrotation Yrotation Zrotation
					End Site
					{
						OFFSET 0.00000 0.00000 2.95275
					}
				}
			}
		}
	}
	JOINT RightUpLeg
	{
		OFFSET -3.35136 0.00000 0.00000
		CHANNELS 3 Xrotation Yrotation Zrotation
		JOINT RightLeg
		{
			OFFSET 0.00000 -16.34683 0.00000
			CHANNELS 3 Xrotation Yrotation Zrotation
			JOINT RightFoot
			{
				OFFSET 0.00000 -13.95979 0.00000
				CHANNELS 3 Xrotation Yrotation Zrotation
				JOINT RightToeBase
				{
					OFFSET 0.00000 -1.33694 4.98954
					CHANNELS 3 Xrotation Yrotation Zrotation
					End Site
					{
						OFFSET 0.00000 0.00000 2.95275
					}
				}
			}
		}
	}
}
MOTION
Frames: 7
Frame Time: 0.008333
 -2.1654 31.6961 -5.0136 5.6897 -16.7384 -3.7650 -1.1965 -2.3272 -0.9481 27.9841 0.0564 3.9018 11.8266 22.2450 14.1370 -29.2734 41.4385 -61.0056 -98.6936 -0.0000 -1.6521 -5.4090 12.0835 24.3378 33.1476 -0.0000 26.2537 -0.0477 -13.2936 -9.3326 -4.5643 29.9290 85.7789 22.7820 -0.0000 25.2258 2.3985 -14.4085 9.5550 32.8623 0.0000 -24.3270 -8.4160 3.4295 -5.2475 16.1274 -0.0000 -0.0000 -25.9372 31.0197 9.1676 10.1839 0.0000 -0.0000 -21.6981 -29.6368 -8.2930 28.2490 0.0000 -0.0000 -17.1790 -25.8194 -1.8935 -2.1162 0.0000 0.0000
 -2.1647 31.6922 -5.0063 5.6151 -16.7065 -3.7896 -1.1339 -2.3476 -0.9297 27.9483 0.0911 3.8835 11.8253 22.2228 14.1421 -29.2600 41.3967 -61.0358 -98.6802 -0.0000 -1.9396 -5.2666 11.8754 24.1297 33.1476 -0.0000 26.2537 -0.0195 -13.3215 -9.3157 -4.5857 29.9919 85.7797 22.6418 -0.0000 25.1853 2.4109 -14.4037 9.6067 32.8623 0.0000 -24.3270 -8.3348 3.3985 -5.2534 16.1381 0.0000 0.0000 -25.9899 30.9975 9.2039 10.1425 -0.0000 -0.0000 -21.9350 -29.2323 -8.4638 30.2990 -0.0000 0.0000 -17.2003 -24.9043 -1.6527 -2.3464 0.0000 0.0000
 -2.1611 31.6889 -5.0030 5.5785 -16.7027 -3.7958 -1.1084 -2.3608 -0.9130 27.9211 0.1486 3.8622 11.8057 22.2104 14.1385 -29.2035 41.3149 -61.0957 -98.6958 -0.0000 -1.9226 -5.2612 11.8196 24.2068 33.1476 -0.0000 26.2537 -0.0805 -13.3170 -9.3162 -4.5416 30.0592 85.7830 22.4498 -0.0000 25.1485 2.4057 -14.3901 9.5952 32.8623 0.0000 -24.3270 -8.2927 3.4084 -5.2634 16.1373 -0.0000 -0.0000 -26.0160 30.9813 9.1757 10.2115 -0.0000 0.0000 -22.2475 -28.7476 -8.6349 32.4414 0.0000 0.0000 -17.1213 -24.1295 -1.2374 -2.6415 0.0000 0.0000
 -2.1567 31.6838 -4.9942 5.5057 -16.7115 -3.7841 -1.0613 -2.3738 -0.9196 27.9030 0.2254 3.8232 11.7740 22.2075 14.1461 -29.1154 41.2620 -61.1692 -98.7203 -0.0000 -1.9538 -5.2113 11.7736 24.0841 33.1476 -0.0000 26.2537 -0.1078 -13.2974 -9.3208 -4.5312 30.1143 85.7995 22.2517 -0.0000 25.0973 2.3943 -14.3905 9.5499 32.8623 0.0000 -24.3270 -8.1962 3.4445 -5.2980 16.1276 0.0000 0.0000 -26.0350 30.9274 9.1710 10.2076 -0.0000 -0.0000 -22.5621 -28.3589 -8.8374 34.6829 0.0000 -0.0000 -17.0298 -23.4146 -0.9930 -2.6653 -0.0000 -0.0000
 -2.1538 31.6803 -4.9877 5.4469 -16.7316 -3.7712 -1.0261 -2.3620 -0.9369 27.9006 0.2816 3.8116 11.7668 22.2119 14.1606 -29.0451 41.2291 -61.2804 -98.7561 -0.0000 -1.9138 -5.1668 11.7205 23.9953 33.1476 -0.0000 26.2537 -0.0955 -13.3007 -9.3077 -4.5466 30.1642 85.8120 22.0677 -0.0000 25.0864 2.4123 -14.3851 9.6240 32.8623 0.0000 -24.3270 -8.1051 3.5150 -5.3301 16.0913 -0.0000 -0.0000 -26.0565 30.8468 9.1053 10.7451 0.0000 0.0000 -22.8992 -27.9546 -9.0290 37.0104 0.0000 -0.0000 -16.9297 -22.7972 -0.7414 -2.8876 -0.0000 -0.0000
 -2.1503 31.6758 -4.9780 5.3708 -16.7516 -3.7472 -0.9841 -2.3549 -0.9651 27.9131 0.3332 3.7934 11.7641 22.2005 14.1495 -28.9917 41.1897 -61.3313 -98.8122 -0.0000 -1.8523 -5.2117 11.7900 24.0563 33.1476 -0.0000 26.2537 -0.1299 -13.2968 -9.3133 -4.5268 30.2091 85.8386 21.8494 -0.0000 25.0382 2.4172 -14.3814 9.6456 32.8623 0.0000 -24.3270 -7.9896 3.5405 -5.3874 16.0493 0.0000 -0.0000 -26.1068 30.9227 9.1827 10.3070 0.0000 0.0000 -23.2007 -27.5540 -9.2266 39.3969 0.0000 -0.0000 -16.8268 -22.2047 -0.3587 -2.4108 0.0000 0.0000
 -2.1455 31.6718 -4.9672 5.2929 -16.7727 -3.7214 -0.9456 -2.3408 -0.9938 27.9343 0.3936 3.7971 11.7622 22.2142 14.1444 -28.9286 41.1528 -61.4423 -98.8623 -0.0000 -1.7770 -5.2039 11.7861 24.0316 33.1476 -0.0000 26.2537 -0.1436 -13.3125 -9.3077 -4.5221 30.3037 85.8430 21.6133 -0.0000 24.9111 2.4127 -14.3424 9.6531 32.8623 0.0000 -24.3270 -7.8913 3.5804 -5.4363 16.0741 0.0000 0.0000 -26.1043 30.8379 9.2049 10.2025 0.0000 -0.0000 -23.5134 -27.1803 -9.4395 41.8527 -0.0000 -0.0000 -16.7383 -21.5977 -0.1636 -1.8059 0.0000 -0.0000
